<svg xmlns="http://www.w3.org/2000/svg" viewBox="0 0 128 128" role="img" aria-labelledby="title desc">
  <title id="title">SoftSutra favicon</title>
  <desc id="desc">A glass-inspired SoftSutra monogram with layered gradients.</desc>
  <defs>
    <linearGradient id="bg" x1="12" y1="10" x2="118" y2="118" gradientUnits="userSpaceOnUse">
      <stop offset="0" stop-color="#6ae3ff"/>
      <stop offset="0.48" stop-color="#8dffc1"/>
      <stop offset="1" stop-color="#ff7bad"/>
    </linearGradient>
    <linearGradient id="stroke" x1="24" y1="22" x2="110" y2="100" gradientUnits="userSpaceOnUse">
      <stop offset="0" stop-color="#ffffff" stop-opacity="0.92"/>
      <stop offset="1" stop-color="#ffffff" stop-opacity="0.18"/>
    </linearGradient>
  </defs>
  <rect x="8" y="8" width="112" height="112" rx="30" fill="#071120"/>
  <rect x="12" y="12" width="104" height="104" rx="26" fill="url(#bg)" opacity="0.2"/>
  <rect x="12" y="12" width="104" height="104" rx="26" fill="none" stroke="url(#stroke)" stroke-width="2"/>
  <path d="M87 37c-6-7-15-11-27-11-15 0-28 8-34 20-7 12-4 25 10 32l20 9c7 3 9 8 7 13-3 6-11 10-20 10-11 0-20-4-27-11" fill="none" stroke="#f7fbff" stroke-linecap="round" stroke-linejoin="round" stroke-width="10"/>
</svg>
